HIERARCHY
ROOT Hips
{
	OFFSET 0.000000 0.000000 0.000000
	CHANNELS 6 Xposition Yposition Zposition Zrotation Yrotation Xrotation 
	JOINT LHipJoint
	{
		OFFSET 0.000000 0.000000 0.000000
		CHANNELS 3 Zrotation Yrotation Xrotation
		JOINT LeftUpLeg
		{
			OFFSET 1.363060 -1.794630 0.839290
			CHANNELS 3 Zrotation Yrotation Xrotation
			JOINT LeftLeg
			{
				OFFSET 2.448110 -6.726130 0.000000
				CHANNELS 3 Zrotation Yrotation Xrotation
				JOINT LeftFoot
				{
					OFFSET 2.562200 -7.039590 0.000000
					CHANNELS 3 Zrotation Yrotation Xrotation
					JOINT LeftToeBase
					{
						OFFSET 0.157640 -0.433110 2.322550
						CHANNELS 3 Zrotation Yrotation Xrotation
						End Site
						{
							OFFSET 0.000000 0.000000 0.000000
						}
					}
				}
			}
		}
	}
	JOINT RHipJoint
	{
		OFFSET 0.000000 0.000000 0.000000
		CHANNELS 3 Zrotation Yrotation Xrotation
		JOINT RightUpLeg
		{
			OFFSET -1.305520 -1.794630 0.839290
			CHANNELS 3 Zrotation Yrotation Xrotation
			JOINT RightLeg
			{
				OFFSET -2.542530 -6.985550 0.000000
				CHANNELS 3 Zrotation Yrotation Xrotation
				JOINT RightFoot
				{
					OFFSET -2.568260 -7.056230 0.000000
					CHANNELS 3 Zrotation Yrotation Xrotation
					JOINT RightToeBase
					{
						OFFSET -0.164730 -0.452590 2.363150
						CHANNELS 3 Zrotation Yrotation Xrotation
						End Site
						{
							OFFSET 0.000000 0.000000 0.000000
						}
					}
				}
			}
		}
	}
	JOINT LowerBack
	{
		OFFSET 0.000000 0.000000 0.000000
		CHANNELS 3 Zrotation Yrotation Xrotation
		JOINT Spine
		{
			OFFSET 0.028270 2.035590 -0.193380
			CHANNELS 3 Zrotation Yrotation Xrotation
			JOINT Spine1
			{
				OFFSET 0.056720 2.048850 -0.042750
				CHANNELS 3 Zrotation Yrotation Xrotation
				JOINT Neck
				{
					OFFSET 0.000000 0.000000 0.000000
					CHANNELS 3 Zrotation Yrotation Xrotation
					JOINT Neck1
					{
						OFFSET -0.054170 1.746240 0.172020
						CHANNELS 3 Zrotation Yrotation Xrotation
						JOINT Head
						{
							OFFSET 0.104070 1.761360 -0.123970
							CHANNELS 3 Zrotation Yrotation Xrotation
							End Site
							{
								OFFSET 0.000000 0.000000 0.000000
							}
						}
					}
				}
				JOINT LeftShoulder
				{
					OFFSET 0.000000 0.000000 0.000000
					CHANNELS 3 Zrotation Yrotation Xrotation
					JOINT LeftArm
					{
						OFFSET 3.362410 1.200890 -0.311210
						CHANNELS 3 Zrotation Yrotation Xrotation
						JOINT LeftForeArm
						{
							OFFSET 4.983000 -0.000000 -0.000000
							CHANNELS 3 Zrotation Yrotation Xrotation
							JOINT LeftHand
							{
								OFFSET 3.483560 -0.000000 -0.000000
								CHANNELS 3 Zrotation Yrotation Xrotation
								JOINT LeftFingerBase
								{
									OFFSET 0.000000 0.000000 0.000000
									CHANNELS 3 Zrotation Yrotation Xrotation
									JOINT LeftHandIndex1
									{
										OFFSET 0.715260 -0.000000 -0.000000
										CHANNELS 3 Zrotation Yrotation Xrotation
										End Site
										{
											OFFSET 0.000000 0.000000 0.000000
										}
									}
								}
								JOINT LThumb
								{
									OFFSET 0.000000 0.000000 0.000000
									CHANNELS 3 Zrotation Yrotation Xrotation
									End Site
									{
										OFFSET 0.000000 0.000000 0.000000
									}
								}
							}
						}
					}
				}
				JOINT RightShoulder
				{
					OFFSET 0.000000 0.000000 0.000000
					CHANNELS 3 Zrotation Yrotation Xrotation
					JOINT RightArm
					{
						OFFSET -3.136600 1.374050 -0.404650
						CHANNELS 3 Zrotation Yrotation Xrotation
						JOINT RightForeArm
						{
							OFFSET -5.241900 -0.000000 -0.000000
							CHANNELS 3 Zrotation Yrotation Xrotation
							JOINT RightHand
							{
								OFFSET -3.444170 -0.000000 -0.000000
								CHANNELS 3 Zrotation Yrotation Xrotation
								JOINT RightFingerBase
								{
									OFFSET 0.000000 0.000000 0.000000
									CHANNELS 3 Zrotation Yrotation Xrotation
									JOINT RightHandIndex1
									{
										OFFSET -0.622530 -0.000000 -0.000000
										CHANNELS 3 Zrotation Yrotation Xrotation
										End Site
										{
											OFFSET 0.000000 0.000000 0.000000
										}
									}
								}
								JOINT RThumb
								{
									OFFSET 0.000000 0.000000 0.000000
									CHANNELS 3 Zrotation Yrotation Xrotation
									End Site
									{
										OFFSET 0.000000 0.000000 0.000000
									}
								}
							}
						}
					}
				}
			}
		}
	}
}
MOTION
Frames: 6
Frame Time: 0.008333
-36.631205 18.039301 -3.121291 -15.573735 74.604126 -9.906906 -2.583892 -0.730782 -0.596913 -4.610600 -5.771950 -22.061798 -1.513449 9.212041 25.141674 4.501889 -5.216444 18.999062 0.979600 6.300300 17.658100 4.113260 -2.498924 3.709659 14.601472 13.811366 -0.325550 3.282155 -4.043201 13.084303 -2.403135 4.096961 -4.174332 -1.092400 -6.642200 18.659600 0.518586 0.046554 15.338004 3.979834 0.342706 6.786795 1.814882 1.088547 -1.118003 -4.092265 6.909141 -1.292270 -0.894349 7.710153 -10.800482 -1.864000 3.552200 -3.693100 -1.051644 -5.570597 0.268792 -81.309169 21.783451 33.983754 28.059799 -38.791026 -12.447906 0.651775 -1.665770 -7.103560 -0.277250 11.085975 -0.158700 -7.125000 0.000000 0.000000 -24.651900 41.408500 2.344600 2.291896 5.295961 2.588973 59.376906 -16.931424 60.797082 -28.860338 36.249967 -9.650266 0.756514 0.208962 -2.541633 -13.009050 -15.435710 3.763700 7.125000 0.000000 0.000000 12.976400 -45.573900 -0.187000 
-36.631923 18.039198 -3.118316 -15.653913 74.622663 -10.005081 -2.580437 -0.727110 -0.594544 -4.584100 -5.797511 -22.036558 -1.513016 9.209061 25.137243 4.514362 -5.252747 18.953017 0.941100 6.178700 17.303800 4.115826 -2.503256 3.709946 14.641623 13.846328 -0.285784 3.284625 -4.039990 13.076166 -2.373437 4.015651 -4.155233 -1.077000 -6.596600 18.525700 0.537882 0.044817 15.305438 3.963839 0.341920 6.784737 1.786659 1.087679 -1.104596 -4.064980 6.939972 -1.341586 -0.924026 7.758849 -10.789252 -1.877000 3.576500 -3.677900 -1.051368 -5.568340 0.271028 -81.260577 21.769750 34.001133 28.081114 -38.809249 -12.465041 0.653163 -1.667083 -7.331895 -0.280626 11.111156 -0.158500 -7.125000 0.000000 0.000000 -24.660400 41.434600 2.328500 2.292109 5.297913 2.589060 59.408020 -16.984926 60.759390 -28.826445 36.224270 -9.633860 0.760028 0.196859 -2.440099 -13.205232 -15.421034 3.813700 7.125000 0.000000 0.000000 12.787900 -45.571800 -0.183500 
-36.631307 18.038480 -3.115853 -15.687145 74.643631 -10.063476 -2.579234 -0.722985 -0.588972 -4.583701 -5.781407 -22.015292 -1.515596 9.203622 25.128121 4.534878 -5.313390 18.901326 0.887400 6.004700 16.798100 4.113532 -2.506694 3.711869 14.667254 13.829932 -0.260157 3.282686 -4.044827 13.091172 -2.361149 3.982952 -4.151913 -1.067800 -6.569200 18.445100 0.548670 0.042874 15.287273 3.946694 0.339836 6.775909 1.762158 1.086568 -1.106011 -4.038081 6.933946 -1.337645 -0.944118 7.750185 -10.818049 -1.887600 3.571900 -3.687400 -1.051674 -5.567878 0.272002 -81.243682 21.764046 33.969464 28.084630 -38.813674 -12.472105 0.655932 -1.668630 -7.502467 -0.353089 11.154667 -0.174600 -7.125000 0.000000 0.000000 -24.735500 41.470200 2.313200 2.290910 5.296986 2.588499 59.430506 -17.062655 60.730257 -28.794410 36.200689 -9.619687 0.764548 0.185914 -2.374297 -13.409827 -15.425687 3.871200 7.125000 0.000000 0.000000 12.596500 -45.590500 -0.186600 
-36.632025 18.038583 -3.112775 -15.553892 74.659852 -9.950553 -2.585786 -0.719246 -0.585628 -4.606230 -5.788744 -21.996319 -1.520048 9.200897 25.120603 4.547685 -5.358060 18.853969 0.858100 5.907500 16.516200 4.108157 -2.507505 3.713958 14.649844 13.800330 -0.254893 3.280203 -4.046373 13.099245 -2.352382 3.955140 -4.139216 -1.055100 -6.531400 18.334400 0.511823 0.059079 15.241039 3.915907 0.351243 6.785942 1.738992 1.092197 -1.079835 -4.130483 6.942709 -1.456730 -0.810494 7.778476 -10.734688 -1.827200 3.583000 -3.640600 -1.050212 -5.568709 0.273649 -81.187447 21.705680 33.991097 28.072814 -38.803095 -12.465349 0.657008 -1.669064 -7.616417 -0.376202 11.145964 -0.179200 -7.125000 0.000000 0.000000 -24.749900 41.461400 2.320500 2.292569 5.298819 2.584984 59.501318 -17.094005 60.610555 -28.766038 36.179861 -9.606173 0.766416 0.192139 -2.486589 -13.326710 -15.475696 3.861500 7.125000 0.000000 0.000000 12.686000 -45.635300 -0.202200 
-36.631923 18.038583 -3.110723 -15.591795 74.684496 -10.000369 -2.585641 -0.716926 -0.583051 -4.599261 -5.795982 -21.978297 -1.521553 9.196486 25.111129 4.559253 -5.393076 18.805315 0.819400 5.775700 16.135100 4.108614 -2.510654 3.713968 14.670041 13.820624 -0.230188 3.280642 -4.047025 13.102014 -2.327302 3.886009 -4.109499 -1.032800 -6.463900 18.136600 0.518008 0.075515 15.216680 3.897231 0.369992 6.750548 1.717271 1.100991 -1.104202 -4.050293 6.928310 -1.352423 -0.871717 7.747918 -10.786278 -1.860700 3.568200 -3.675400 -1.052953 -5.567795 0.275446 -81.118532 21.747510 34.078374 28.075359 -38.809443 -12.468661 0.657693 -1.669085 -7.432422 -0.416225 11.103898 -0.188900 -7.125000 0.000000 0.000000 -24.772400 41.417600 2.351800 2.286935 5.296997 2.583016 59.569322 -17.206136 60.459536 -28.750600 36.172059 -9.600015 0.765028 0.213646 -2.871866 -13.035430 -15.529100 3.795600 7.125000 0.000000 0.000000 12.971200 -45.670100 -0.218200 
-36.632025 18.038275 -3.108261 -15.605928 74.706582 -10.032702 -2.586254 -0.713777 -0.579308 -4.595807 -5.799923 -21.957447 -1.524308 9.191022 25.099715 4.573502 -5.435840 18.762119 0.783800 5.651900 15.777800 4.107581 -2.513345 3.714585 14.688807 13.822756 -0.208098 3.279745 -4.049693 13.110797 -2.307990 3.832184 -4.093802 -1.018900 -6.421700 18.013000 0.519003 0.086200 15.190236 3.877204 0.381513 6.736087 1.693138 1.106447 -1.108223 -4.031421 6.923260 -1.341430 -0.869268 7.741023 -10.789136 -1.862500 3.564200 -3.678200 -1.054259 -5.567446 0.277048 -81.061989 21.744735 34.128856 28.065520 -38.803391 -12.463534 0.658739 -1.668321 -7.337198 -0.457462 11.036302 -0.197900 -7.125000 0.000000 0.000000 -24.784600 41.350400 2.397600 2.284706 5.296816 2.581019 59.627592 -17.282815 60.350037 -28.726757 36.156467 -9.590212 0.767127 0.223654 -3.065475 -12.924543 -15.596828 3.782500 7.125000 0.000000 0.000000 13.091500 -45.731500 -0.240500 
